PathFileType	4	(X/Y/Z)	Patient4_TMGait_0pt3_01_right_06.trc.trc
DataRate	CameraRate	NumFrames	NumMarkers	Units	OrigDataRate	OrigDataStartFrame	OrigNumFrames
51.282051282051	51.282051282051	5	33	mm	51.282051282051	124	       141
Frame#	Time	Sacral			L.Shoulder			Chest			R.Shoulder			Neck			R.ASIS			L.ASIS			R.Thigh.Superior			R.Thigh.Lateral			R.Thigh.Inferior			R.Patella			L.Thigh.Superior			L.Thigh.Lateral			L.Thigh.Inferior			L.Patella			L.Shank.Superior			L.Shank.Lateral			L.Shank.Inferior			R.Shank.Superior			R.Shank.Lateral			R.Shank.Inferior			R.Heel			R.Midfoot.Superior			R.Midfoot.Lateral			R.Toe			L.Heel			L.Midfoot.Lateral			L.Midfoot.Superior			L.Toe			L.Elbow			L.Wrist			R.Elbow			R.Wrist			
		X1	Y1	Z1	X2	Y2	Z2	X3	Y3	Z3	X4	Y4	Z4	X5	Y5	Z5	X6	Y6	Z6	X7	Y7	Z7	X8	Y8	Z8	X9	Y9	Z9	X10	Y10	Z10	X11	Y11	Z11	X12	Y12	Z12	X13	Y13	Z13	X14	Y14	Z14	X15	Y15	Z15	X16	Y16	Z16	X17	Y17	Z17	X18	Y18	Z18	X19	Y19	Z19	X20	Y20	Z20	X21	Y21	Z21	X22	Y22	Z22	X23	Y23	Z23	X24	Y24	Z24	X25	Y25	Z25	X26	Y26	Z26	X27	Y27	Z27	X28	Y28	Z28	X29	Y29	Z29	X30	Y30	Z30	X31	Y31	Z31	X32	Y32	Z32	X33	Y33	Z33	

124	12.098500000000	838.737379925664	1001.974846370944	465.089224612661	1079.951155943958	1425.293648294956	338.029859551136	1130.309338510909	1353.293634665867	519.210421250685	1004.006469451026	1429.932404911825	663.846899585736	1023.728785929013	1486.733267738664	489.273513793393	1035.611746826077	937.500549900867	635.846736746683	1082.940941307125	946.938104787578	363.796188332572	1103.524342892296	754.063927845727	613.962921016744	1036.163695812890	635.595751522752	671.237655825747	1128.674619149312	593.019374263092	600.875512311237	1147.328263611745	508.213913361113	614.335781695068	1081.294724749492	718.439886540400	399.508757266355	980.862969211271	618.029185094943	321.909301715121	1033.712305809188	527.556439605261	398.637281089669	1017.401325788618	457.024455904448	404.282870375810	971.953025638065	393.955776980680	389.107261185368	860.981187673190	305.377087899385	329.122640742845	875.816184370277	183.925828696927	398.732235974254	1126.653905368288	417.280914749545	622.476140499714	1062.205743618291	308.544494593395	685.357795776479	1122.042258438641	216.575564279171	632.394735439747	1009.588368131694	40.600032008132	604.027651754793	1176.619711933074	104.593019873764	645.350168112264	1092.103354129720	36.033714783288	679.141440564721	1297.494263937458	60.659788303606	673.853278475361	717.233271799210	46.354370692532	429.998980438057	792.647779416583	39.368195454611	352.018091288275	878.795623049196	96.336270715338	381.177204829854	1004.247877180050	38.662861727496	352.018646923812	1216.399088120133	1136.366101688545	178.844125090506	1464.546487347806	1180.977960513387	227.449017587666	847.227821722591	1109.988080603510	732.124439269714	848.384136191157	848.688822851172	760.554858167051	
125	12.118000000000	840.925312417063	1000.381737201374	470.228653689641	1080.241551655815	1424.651931199725	344.160106077031	1130.618758522882	1352.780098211733	525.444563655735	1003.682269818249	1428.842512047005	669.893321060928	1023.543369288452	1485.877343971500	495.357279519857	1037.698417216906	936.334396861546	641.272625463574	1085.372651226986	946.347243844962	369.423151990338	1106.327472940873	752.871779218152	618.392741655609	1038.292185690506	633.958311901270	674.355021412444	1131.437309012307	591.946689460369	604.353381399534	1148.910576153497	506.316928415091	616.897499909841	1082.772414201080	717.266741412891	403.190926266848	981.315093294667	617.669641586891	325.271574860209	1034.103536732746	526.365493892360	400.985689095806	1017.312117872757	455.334266482660	405.937442561932	970.625106409665	393.157747813370	390.659079637094	857.903067799035	306.646615782880	330.652473421383	871.660658282693	184.284751255694	399.010513349021	1127.651195974364	415.234999502177	624.349857146688	1062.219946463041	307.087476630054	686.678720532006	1120.257604500671	214.854989002583	632.602517315079	1004.906720183419	41.602372719735	603.369156923126	1172.846871797399	102.606910525595	644.519454669714	1087.067071900220	36.333939819044	678.799090771555	1292.934850588795	56.687440125862	673.541337787490	711.647469703838	48.275113713944	430.037933966798	786.876148305754	40.241724494614	352.032482105367	873.592523048878	96.545364975771	380.903638861090	998.366091984651	38.566571400979	351.932749120391	1216.885059562579	1134.192437345022	186.626318859998	1464.919291807586	1181.932029708029	233.652932550490	852.150187978362	1105.959535464797	738.782254649526	860.741673033277	845.031572727510	770.171285660098	
126	12.137500000000	843.205411141115	999.297810406435	475.711131387350	1080.502627870490	1424.547538776088	350.464800712478	1131.095402743735	1352.752250026739	531.792118915468	1003.652425820838	1428.202600935570	676.181270056683	1023.419406053350	1485.499807049225	501.681141174045	1040.053585917882	935.628825479765	646.818201332549	1087.767066014160	946.291850382953	375.136940146350	1109.293365958273	752.045856220664	622.734391883150	1040.675530933552	632.828360060558	677.559621132019	1134.183263785679	591.151585709892	607.718139308676	1150.549552885662	504.590161097953	619.493048354476	1084.726979615454	716.653244450846	406.837211413800	982.436987997697	617.635599458355	328.750662334640	1035.631417519592	525.574610391693	403.293114372161	1018.518744857183	453.875801583153	407.455215769736	970.364184217453	392.666550415586	392.192514024526	855.650567745566	308.586595027017	332.297036320642	868.180654938424	185.244742629565	399.249259898542	1128.321020095852	413.426587025326	626.223485830801	1061.574330318688	306.025866821341	688.014947275969	1117.477946751710	213.341894736025	632.775150573291	998.817008205417	42.662510796248	602.675856809708	1167.660906900783	100.941782395102	643.757029856791	1080.635686360844	36.742609072769	678.426663886127	1287.042200119425	53.096081391087	673.346736341979	706.350093550586	51.456510605434	430.064611308978	781.279246737466	41.877082269805	352.048303090321	868.849423677610	97.033615543640	380.531705738874	992.476909676644	38.382798453633	351.858499451889	1216.326344965211	1131.845929428458	194.736340759425	1464.679266425934	1181.367669196960	239.641977884484	857.539950363182	1102.447488606802	746.079199058881	873.996503842354	842.276270368738	780.744443110600	
127	12.157000000000	845.491523931571	998.757319581829	481.470205758713	1080.744653969028	1424.974646753145	356.874504062563	1131.733513465963	1353.192922034287	538.180206798682	1003.928330815538	1428.021870835922	682.633214489479	1023.368084153586	1485.599181402797	508.170000575380	1042.576631274511	935.373236151409	652.427267112198	1090.032310760556	946.758862085926	380.878026333333	1112.169342932353	751.498985762095	627.059205208839	1042.953744963143	632.156939140414	680.902893646354	1136.563213019131	590.564320709332	611.057570946812	1151.901511067464	503.082422380398	622.168412945373	1087.119341624320	716.629424013910	410.467681832881	984.312663105050	617.905657130687	332.307760675558	1038.387303982523	525.198969455231	405.568383943686	1021.126237271304	452.669605691932	408.834384054482	971.288339825859	392.481902321686	393.708324529861	854.373301939323	311.224655224378	334.032174913149	865.473966382293	186.864555184992	399.463511980897	1128.495955319776	411.902884769065	628.161124749440	1060.301788682100	305.273019118068	689.433398008096	1113.974543288399	212.064070907154	633.021650795283	991.976416702610	43.606302623524	602.085760974598	1161.628583752156	99.644536715193	643.160218262894	1073.510765737187	37.148877887013	678.113645833887	1280.448481475581	50.101156316552	673.274518682149	701.420971610544	56.054048606669	430.056618844561	775.923265143209	44.431048183005	352.049784559298	864.633331809189	97.877663278871	380.084473313832	986.583696284369	38.096320332614	351.821049946693	1214.712702244221	1129.395860873427	203.071765748966	1463.816877338218	1179.200467355177	245.398089808108	863.225795497330	1099.606538165391	753.985068683446	888.016777732714	840.630209706628	792.142427400020	
128	12.176500000000	847.688430095187	998.733951952616	487.444018114056	1080.944802792488	1425.872596348952	363.313782015648	1132.509397906349	1354.035704819970	544.527637365101	1004.511034794741	1428.254711876501	689.173190639712	1023.386003913419	1486.122912059232	514.746592070632	1045.167970397769	935.508353439956	658.036754864598	1092.072985940397	947.682833598146	386.584858640041	1114.737693411707	751.118217253726	631.437950426244	1044.801627568321	631.848290766979	684.406220414471	1138.301397854796	590.100649598330	614.452754889012	1152.674303942306	501.799583054326	624.952336049073	1089.914049983724	717.185965337247	414.112538165122	987.024918072818	618.425799336266	335.917518270159	1042.432300712374	525.228713908745	407.853124005037	1025.202369440222	451.719756377369	410.118469392371	973.492027843575	392.578264836042	395.235408366254	854.218545736786	314.550003424207	335.837182958934	863.623692044306	189.170713993022	399.679576302028	1128.033900667606	410.667850684057	630.205964967461	1058.410373502956	304.738558383092	690.960362927056	1109.952745966461	211.025512068839	633.413126264774	984.877360210890	44.340742590293	601.672249133983	1155.188094688128	98.714164050928	642.778271839254	1066.204656671916	37.485961131962	677.908334643406	1273.614761084808	47.790286998744	673.316366283623	696.949905812597	62.167549975663	429.984221299413	770.894580741874	48.043516980122	352.015364003507	861.004362375110	99.159218796902	379.598871171234	980.709566038372	37.695354403635	351.845632570492	1212.037215390523	1126.889595133440	211.512885515771	1462.273858881703	1175.321898711541	250.909189650788	869.080633856956	1097.504592597563	762.481347718994	902.708837769841	840.209585767824	804.229916167285	
